G04 #@! TF.GenerationSoftware,KiCad,Pcbnew,8.0.5*
G04 #@! TF.CreationDate,2026-03-25T10:50:11+01:00*
G04 #@! TF.ProjectId,NextFDC,4e657874-4644-4432-9e6b-696361645f70,rev?*
G04 #@! TF.SameCoordinates,Original*
G04 #@! TF.FileFunction,Soldermask,Bot*
G04 #@! TF.FilePolarity,Negative*
%FSLAX46Y46*%
G04 Gerber Fmt 4.6, Leading zero omitted, Abs format (unit mm)*
G04 Created by KiCad (PCBNEW 8.0.5) date 2026-03-25 10:50:11*
%MOMM*%
%LPD*%
G01*
G04 APERTURE LIST*
G04 Aperture macros list*
%AMRoundRect*
0 Rectangle with rounded corners*
0 $1 Rounding radius*
0 $2 $3 $4 $5 $6 $7 $8 $9 X,Y pos of 4 corners*
0 Add a 4 corners polygon primitive as box body*
4,1,4,$2,$3,$4,$5,$6,$7,$8,$9,$2,$3,0*
0 Add four circle primitives for the rounded corners*
1,1,$1+$1,$2,$3*
1,1,$1+$1,$4,$5*
1,1,$1+$1,$6,$7*
1,1,$1+$1,$8,$9*
0 Add four rect primitives between the rounded corners*
20,1,$1+$1,$2,$3,$4,$5,0*
20,1,$1+$1,$4,$5,$6,$7,0*
20,1,$1+$1,$6,$7,$8,$9,0*
20,1,$1+$1,$8,$9,$2,$3,0*%
G04 Aperture macros list end*
%ADD10R,3.000000X3.000000*%
%ADD11C,3.000000*%
%ADD12C,1.600000*%
%ADD13O,1.600000X1.600000*%
%ADD14O,2.000000X2.500000*%
%ADD15O,1.850000X2.500000*%
%ADD16R,1.600000X1.600000*%
%ADD17RoundRect,0.250000X0.600000X0.600000X-0.600000X0.600000X-0.600000X-0.600000X0.600000X-0.600000X0*%
%ADD18C,1.700000*%
%ADD19R,2.400000X1.600000*%
%ADD20O,2.400000X1.600000*%
%ADD21R,1.600000X2.400000*%
%ADD22O,1.600000X2.400000*%
%ADD23C,1.500000*%
%ADD24R,1.700000X1.700000*%
%ADD25O,1.700000X1.700000*%
%ADD26O,5.080000X1.778000*%
G04 APERTURE END LIST*
D10*
X123799600Y-98450400D03*
D11*
X128879600Y-98450400D03*
D12*
X127100000Y-90500000D03*
D13*
X127100000Y-80340000D03*
D14*
X118951400Y-111048800D03*
D15*
X121691400Y-111048800D03*
D14*
X124431400Y-111048800D03*
X124431400Y-105048800D03*
D15*
X121691400Y-105048800D03*
D14*
X118951400Y-105048800D03*
D12*
X124520000Y-53900000D03*
D13*
X134680000Y-53900000D03*
D12*
X74900000Y-36900000D03*
X69900000Y-36900000D03*
D16*
X85100000Y-81390000D03*
D13*
X85100000Y-89010000D03*
D12*
X95100000Y-49200000D03*
X90100000Y-49200000D03*
X101473000Y-108966000D03*
D13*
X101473000Y-98806000D03*
D12*
X106200000Y-49200000D03*
X101200000Y-49200000D03*
X122000000Y-80340000D03*
D13*
X122000000Y-90500000D03*
D12*
X110744000Y-103632000D03*
X110744000Y-108632000D03*
D17*
X143100000Y-80080000D03*
D18*
X140560000Y-80080000D03*
X143100000Y-77540000D03*
X140560000Y-77540000D03*
X143100000Y-75000000D03*
X140560000Y-75000000D03*
X143100000Y-72460000D03*
X140560000Y-72460000D03*
X143100000Y-69920000D03*
X140560000Y-69920000D03*
X143100000Y-67380000D03*
X140560000Y-67380000D03*
X143100000Y-64840000D03*
X140560000Y-64840000D03*
X143100000Y-62300000D03*
X140560000Y-62300000D03*
X143100000Y-59760000D03*
X140560000Y-59760000D03*
X143100000Y-57220000D03*
X140560000Y-57220000D03*
X143100000Y-54680000D03*
X140560000Y-54680000D03*
X143100000Y-52140000D03*
X140560000Y-52140000D03*
X143100000Y-49600000D03*
X140560000Y-49600000D03*
X143100000Y-47060000D03*
X140560000Y-47060000D03*
X143100000Y-44520000D03*
X140560000Y-44520000D03*
X143100000Y-41980000D03*
X140560000Y-41980000D03*
X143100000Y-39440000D03*
X140560000Y-39440000D03*
D19*
X112880000Y-44000000D03*
D20*
X112880000Y-46540000D03*
X112880000Y-49080000D03*
X112880000Y-51620000D03*
X112880000Y-54160000D03*
X112880000Y-56700000D03*
X112880000Y-59240000D03*
X112880000Y-61780000D03*
X120500000Y-61780000D03*
X120500000Y-59240000D03*
X120500000Y-56700000D03*
X120500000Y-54160000D03*
X120500000Y-51620000D03*
X120500000Y-49080000D03*
X120500000Y-46540000D03*
X120500000Y-44000000D03*
D12*
X97500000Y-75600000D03*
X102500000Y-75600000D03*
D21*
X130325000Y-67780000D03*
D22*
X127785000Y-67780000D03*
X125245000Y-67780000D03*
X122705000Y-67780000D03*
X120165000Y-67780000D03*
X117625000Y-67780000D03*
X115085000Y-67780000D03*
X115085000Y-75400000D03*
X117625000Y-75400000D03*
X120165000Y-75400000D03*
X122705000Y-75400000D03*
X125245000Y-75400000D03*
X127785000Y-75400000D03*
X130325000Y-75400000D03*
D21*
X102125000Y-37200000D03*
D22*
X99585000Y-37200000D03*
X97045000Y-37200000D03*
X94505000Y-37200000D03*
X91965000Y-37200000D03*
X89425000Y-37200000D03*
X86885000Y-37200000D03*
X86885000Y-44820000D03*
X89425000Y-44820000D03*
X91965000Y-44820000D03*
X94505000Y-44820000D03*
X97045000Y-44820000D03*
X99585000Y-44820000D03*
X102125000Y-44820000D03*
D12*
X132000000Y-90480000D03*
D13*
X132000000Y-80320000D03*
D16*
X96000000Y-81500000D03*
D13*
X96000000Y-89120000D03*
D12*
X114200000Y-38900000D03*
X119200000Y-38900000D03*
D23*
X106934000Y-98700000D03*
X111814000Y-98700000D03*
D12*
X135100000Y-74600000D03*
X135100000Y-69600000D03*
D14*
X129428900Y-111048800D03*
D15*
X132168900Y-111048800D03*
D14*
X134908900Y-111048800D03*
X134908900Y-105048800D03*
D15*
X132168900Y-105048800D03*
D14*
X129428900Y-105048800D03*
D16*
X90500000Y-81490000D03*
D13*
X90500000Y-89110000D03*
D19*
X86200000Y-53875000D03*
D20*
X86200000Y-56415000D03*
X86200000Y-58955000D03*
X86200000Y-61495000D03*
X86200000Y-64035000D03*
X86200000Y-66575000D03*
X86200000Y-69115000D03*
X93820000Y-69115000D03*
X93820000Y-66575000D03*
X93820000Y-64035000D03*
X93820000Y-61495000D03*
X93820000Y-58955000D03*
X93820000Y-56415000D03*
X93820000Y-53875000D03*
D12*
X94000000Y-75600000D03*
D13*
X83840000Y-75600000D03*
D12*
X105800000Y-75600000D03*
X110800000Y-75600000D03*
D21*
X92975000Y-93875000D03*
D22*
X90435000Y-93875000D03*
X87895000Y-93875000D03*
X85355000Y-93875000D03*
X82815000Y-93875000D03*
X80275000Y-93875000D03*
X77735000Y-93875000D03*
X75195000Y-93875000D03*
X72655000Y-93875000D03*
X70115000Y-93875000D03*
X67575000Y-93875000D03*
X65035000Y-93875000D03*
X65035000Y-109115000D03*
X67575000Y-109115000D03*
X70115000Y-109115000D03*
X72655000Y-109115000D03*
X75195000Y-109115000D03*
X77735000Y-109115000D03*
X80275000Y-109115000D03*
X82815000Y-109115000D03*
X85355000Y-109115000D03*
X87895000Y-109115000D03*
X90435000Y-109115000D03*
X92975000Y-109115000D03*
D12*
X107000000Y-43500000D03*
X107000000Y-38500000D03*
X124520000Y-38900000D03*
D13*
X134680000Y-38900000D03*
D12*
X124520000Y-48895000D03*
D13*
X134680000Y-48895000D03*
D12*
X116800000Y-90500000D03*
D13*
X116800000Y-80340000D03*
D12*
X111600000Y-90400000D03*
D13*
X111600000Y-80240000D03*
D16*
X101100000Y-81500000D03*
D13*
X101100000Y-89120000D03*
D12*
X124520000Y-43561000D03*
D13*
X134680000Y-43561000D03*
D24*
X111556800Y-67813000D03*
D25*
X111556800Y-70353000D03*
D12*
X105791000Y-103886000D03*
X105791000Y-108886000D03*
X124520000Y-58900000D03*
D13*
X134680000Y-58900000D03*
D24*
X68630800Y-46685200D03*
D25*
X68630800Y-49225200D03*
D12*
X101800000Y-94100000D03*
X106800000Y-94100000D03*
X98044000Y-109093000D03*
X98044000Y-104093000D03*
D19*
X64500000Y-40500000D03*
D20*
X64500000Y-43040000D03*
X64500000Y-45580000D03*
X64500000Y-48120000D03*
X64500000Y-50660000D03*
X64500000Y-53200000D03*
X64500000Y-55740000D03*
X64500000Y-58280000D03*
X64500000Y-60820000D03*
X64500000Y-63360000D03*
X64500000Y-65900000D03*
X64500000Y-68440000D03*
X64500000Y-70980000D03*
X64500000Y-73520000D03*
X64500000Y-76060000D03*
X64500000Y-78600000D03*
X64500000Y-81140000D03*
X64500000Y-83680000D03*
X64500000Y-86220000D03*
X64500000Y-88760000D03*
X79740000Y-88760000D03*
X79740000Y-86220000D03*
X79740000Y-83680000D03*
X79740000Y-81140000D03*
X79740000Y-78600000D03*
X79740000Y-76060000D03*
X79740000Y-73520000D03*
X79740000Y-70980000D03*
X79740000Y-68440000D03*
X79740000Y-65900000D03*
X79740000Y-63360000D03*
X79740000Y-60820000D03*
X79740000Y-58280000D03*
X79740000Y-55740000D03*
X79740000Y-53200000D03*
X79740000Y-50660000D03*
X79740000Y-48120000D03*
X79740000Y-45580000D03*
X79740000Y-43040000D03*
X79740000Y-40500000D03*
D12*
X134680000Y-64100000D03*
D13*
X124520000Y-64100000D03*
D24*
X72390000Y-41955800D03*
D25*
X72390000Y-44495800D03*
D12*
X98000000Y-94441000D03*
X98000000Y-99441000D03*
X106300000Y-90380000D03*
D13*
X106300000Y-80220000D03*
D14*
X139906400Y-111048800D03*
D15*
X142646400Y-111048800D03*
D14*
X145386400Y-111048800D03*
X145386400Y-105048800D03*
D15*
X142646400Y-105048800D03*
D14*
X139906400Y-105048800D03*
D19*
X98480000Y-53875000D03*
D20*
X98480000Y-56415000D03*
X98480000Y-58955000D03*
X98480000Y-61495000D03*
X98480000Y-64035000D03*
X98480000Y-66575000D03*
X98480000Y-69115000D03*
X106100000Y-69115000D03*
X106100000Y-66575000D03*
X106100000Y-64035000D03*
X106100000Y-61495000D03*
X106100000Y-58955000D03*
X106100000Y-56415000D03*
X106100000Y-53875000D03*
D26*
X55372000Y-39497000D03*
X55372000Y-42037000D03*
X55372000Y-44577000D03*
X55372000Y-47117000D03*
X55372000Y-52197000D03*
X55372000Y-54737000D03*
X55372000Y-57277000D03*
X55372000Y-59817000D03*
X55372000Y-62357000D03*
X55372000Y-64897000D03*
X55372000Y-67437000D03*
X55372000Y-69977000D03*
X55372000Y-72517000D03*
X55372000Y-75057000D03*
X55372000Y-77597000D03*
X55372000Y-80137000D03*
X55372000Y-82677000D03*
X55372000Y-85217000D03*
X55372000Y-87757000D03*
X55372000Y-90297000D03*
X55372000Y-92837000D03*
X55372000Y-95377000D03*
X55372000Y-97917000D03*
X55372000Y-100457000D03*
X55372000Y-102997000D03*
X55372000Y-105537000D03*
X55372000Y-108077000D03*
M02*
