M48
; DRILL file {KiCad 8.0.5} date 2026-03-25T10:50:27+0100
; FORMAT={-:-/ absolute / metric / decimal}
; #@! TF.CreationDate,2026-03-25T10:50:27+01:00
; #@! TF.GenerationSoftware,Kicad,Pcbnew,8.0.5
; #@! TF.FileFunction,Plated,1,2,PTH
FMAT,2
METRIC
; #@! TA.AperFunction,Plated,PTH,ViaDrill
T1C0.400
; #@! TA.AperFunction,Plated,PTH,ComponentDrill
T2C0.800
; #@! TA.AperFunction,Plated,PTH,ComponentDrill
T3C1.000
; #@! TA.AperFunction,Plated,PTH,ComponentDrill
T4C1.520
%
G90
G05
T1
X59.764Y-40.767
X60.9Y-62.8
X61.163Y-91.449
X61.214Y-44.45
X68.453Y-72.136
X69.215Y-67.564
X69.265Y-89.408
X70.104Y-77.851
X70.993Y-61.849
X70.995Y-69.984
X71.501Y-73.279
X71.755Y-54.864
X72.898Y-59.695
X73.152Y-67.818
X74.295Y-67.818
X74.803Y-48.26
X75.438Y-67.781
X76.83Y-69.21
X77.343Y-45.72
X77.47Y-67.781
X82.867Y-68.744
X83.021Y-65.659
X84.103Y-65.503
X87.545Y-47.461
X98.298Y-41.275
X101.092Y-70.739
X103.378Y-65.151
X104.394Y-46.228
X108.331Y-46.99
X108.458Y-45.72
X109.093Y-49.403
X110.363Y-41.275
X124.042Y-85.979
X129.958Y-89.535
X138.684Y-72.136
X146.304Y-86.665
T2
X64.5Y-40.5
X64.5Y-43.04
X64.5Y-45.58
X64.5Y-48.12
X64.5Y-50.66
X64.5Y-53.2
X64.5Y-55.74
X64.5Y-58.28
X64.5Y-60.82
X64.5Y-63.36
X64.5Y-65.9
X64.5Y-68.44
X64.5Y-70.98
X64.5Y-73.52
X64.5Y-76.06
X64.5Y-78.6
X64.5Y-81.14
X64.5Y-83.68
X64.5Y-86.22
X64.5Y-88.76
X65.035Y-93.875
X65.035Y-109.115
X67.575Y-93.875
X67.575Y-109.115
X69.9Y-36.9
X70.115Y-93.875
X70.115Y-109.115
X72.655Y-93.875
X72.655Y-109.115
X74.9Y-36.9
X75.195Y-93.875
X75.195Y-109.115
X77.735Y-93.875
X77.735Y-109.115
X79.74Y-40.5
X79.74Y-43.04
X79.74Y-45.58
X79.74Y-48.12
X79.74Y-50.66
X79.74Y-53.2
X79.74Y-55.74
X79.74Y-58.28
X79.74Y-60.82
X79.74Y-63.36
X79.74Y-65.9
X79.74Y-68.44
X79.74Y-70.98
X79.74Y-73.52
X79.74Y-76.06
X79.74Y-78.6
X79.74Y-81.14
X79.74Y-83.68
X79.74Y-86.22
X79.74Y-88.76
X80.275Y-93.875
X80.275Y-109.115
X82.815Y-93.875
X82.815Y-109.115
X83.84Y-75.6
X85.1Y-81.39
X85.1Y-89.01
X85.355Y-93.875
X85.355Y-109.115
X86.2Y-53.875
X86.2Y-56.415
X86.2Y-58.955
X86.2Y-61.495
X86.2Y-64.035
X86.2Y-66.575
X86.2Y-69.115
X86.885Y-37.2
X86.885Y-44.82
X87.895Y-93.875
X87.895Y-109.115
X89.425Y-37.2
X89.425Y-44.82
X90.1Y-49.2
X90.435Y-93.875
X90.435Y-109.115
X90.5Y-81.49
X90.5Y-89.11
X91.965Y-37.2
X91.965Y-44.82
X92.975Y-93.875
X92.975Y-109.115
X93.82Y-53.875
X93.82Y-56.415
X93.82Y-58.955
X93.82Y-61.495
X93.82Y-64.035
X93.82Y-66.575
X93.82Y-69.115
X94.0Y-75.6
X94.505Y-37.2
X94.505Y-44.82
X95.1Y-49.2
X96.0Y-81.5
X96.0Y-89.12
X97.045Y-37.2
X97.045Y-44.82
X97.5Y-75.6
X98.0Y-94.441
X98.0Y-99.441
X98.044Y-104.093
X98.044Y-109.093
X98.48Y-53.875
X98.48Y-56.415
X98.48Y-58.955
X98.48Y-61.495
X98.48Y-64.035
X98.48Y-66.575
X98.48Y-69.115
X99.585Y-37.2
X99.585Y-44.82
X101.1Y-81.5
X101.1Y-89.12
X101.2Y-49.2
X101.473Y-98.806
X101.473Y-108.966
X101.8Y-94.1
X102.125Y-37.2
X102.125Y-44.82
X102.5Y-75.6
X105.791Y-103.886
X105.791Y-108.886
X105.8Y-75.6
X106.1Y-53.875
X106.1Y-56.415
X106.1Y-58.955
X106.1Y-61.495
X106.1Y-64.035
X106.1Y-66.575
X106.1Y-69.115
X106.2Y-49.2
X106.3Y-80.22
X106.3Y-90.38
X106.8Y-94.1
X106.934Y-98.7
X107.0Y-38.5
X107.0Y-43.5
X110.744Y-103.632
X110.744Y-108.632
X110.8Y-75.6
X111.6Y-80.24
X111.6Y-90.4
X111.814Y-98.7
X112.88Y-44.0
X112.88Y-46.54
X112.88Y-49.08
X112.88Y-51.62
X112.88Y-54.16
X112.88Y-56.7
X112.88Y-59.24
X112.88Y-61.78
X114.2Y-38.9
X115.085Y-67.78
X115.085Y-75.4
X116.8Y-80.34
X116.8Y-90.5
X117.625Y-67.78
X117.625Y-75.4
X119.151Y-105.049
X119.151Y-111.049
X119.2Y-38.9
X120.165Y-67.78
X120.165Y-75.4
X120.5Y-44.0
X120.5Y-46.54
X120.5Y-49.08
X120.5Y-51.62
X120.5Y-54.16
X120.5Y-56.7
X120.5Y-59.24
X120.5Y-61.78
X121.691Y-105.049
X121.691Y-111.049
X122.0Y-80.34
X122.0Y-90.5
X122.705Y-67.78
X122.705Y-75.4
X124.231Y-105.049
X124.231Y-111.049
X124.52Y-38.9
X124.52Y-43.561
X124.52Y-48.895
X124.52Y-53.9
X124.52Y-58.9
X124.52Y-64.1
X125.245Y-67.78
X125.245Y-75.4
X127.1Y-80.34
X127.1Y-90.5
X127.785Y-67.78
X127.785Y-75.4
X129.629Y-105.049
X129.629Y-111.049
X130.325Y-67.78
X130.325Y-75.4
X132.0Y-80.32
X132.0Y-90.48
X132.169Y-105.049
X132.169Y-111.049
X134.68Y-38.9
X134.68Y-43.561
X134.68Y-48.895
X134.68Y-53.9
X134.68Y-58.9
X134.68Y-64.1
X134.709Y-105.049
X134.709Y-111.049
X135.1Y-69.6
X135.1Y-74.6
X140.106Y-105.049
X140.106Y-111.049
X142.646Y-105.049
X142.646Y-111.049
X145.186Y-105.049
X145.186Y-111.049
T3
X68.631Y-46.685
X68.631Y-49.225
X72.39Y-41.956
X72.39Y-44.496
X111.557Y-67.813
X111.557Y-70.353
X140.56Y-39.44
X140.56Y-41.98
X140.56Y-44.52
X140.56Y-47.06
X140.56Y-49.6
X140.56Y-52.14
X140.56Y-54.68
X140.56Y-57.22
X140.56Y-59.76
X140.56Y-62.3
X140.56Y-64.84
X140.56Y-67.38
X140.56Y-69.92
X140.56Y-72.46
X140.56Y-75.0
X140.56Y-77.54
X140.56Y-80.08
X143.1Y-39.44
X143.1Y-41.98
X143.1Y-44.52
X143.1Y-47.06
X143.1Y-49.6
X143.1Y-52.14
X143.1Y-54.68
X143.1Y-57.22
X143.1Y-59.76
X143.1Y-62.3
X143.1Y-64.84
X143.1Y-67.38
X143.1Y-69.92
X143.1Y-72.46
X143.1Y-75.0
X143.1Y-77.54
X143.1Y-80.08
T4
X123.8Y-98.45
X128.88Y-98.45
M30
